<svg width="130" height="33" viewBox="0 0 130 33" fill="#afcfff" xmlns="http://www.w3.org/2000/svg">
<path opacity="0.1" fill-rule="evenodd" clip-rule="evenodd" d="M1.73218 22.0506C1.73218 22.0506 6.73103 21.3182 12.4144 23.0778C23.2239 26.4244 23.8406 20.296 27.8488 17.341C31.516 14.6375 34.553 16.287 38.6361 19.5931C41.6475 22.0316 46.0363 26.1247 50.5814 25.4658C54.7361 24.8635 57.6814 20.0627 63.4402 18.8418C68.0044 17.8742 71.7136 20.5325 76.9694 19.5931C84.0992 18.3187 87.284 10.8163 92.3797 10.8163C98.6689 10.8163 103.097 4.47095 108.818 4.47095C114.506 4.47095 115.278 8.20215 121.5 10.8163C126.256 12.8148 128.545 10.8163 128.545 10.8163V32.2318H1.73218V22.0506Z" fill="url(#paint0_linear_2_4814)"/>
<path d="M1.73218 18.7243C1.73218 18.7243 6.73103 18.0024 12.4144 19.7365C23.2239 23.0347 23.8406 16.995 27.8488 14.0827C31.516 11.4184 34.553 13.044 38.6361 16.3023C41.6475 18.7055 46.0363 22.7394 50.5814 22.09C54.7361 21.4963 57.6814 16.7651 63.4402 15.5619C68.0044 14.6082 71.7136 17.2281 76.9694 16.3023C84.0992 15.0464 87.284 7.6525 92.3797 7.6525C98.6689 7.6525 103.097 1.38391 108.818 1.38391C114.506 1.38391 114.808 5.07622 121.03 7.6525C125.786 9.62209 128.545 7.6525 128.545 7.6525" stroke="#1B59F8" stroke-width="1.84723" stroke-linecap="round" stroke-linejoin="round"/>
<defs>
<linearGradient id="paint0_linear_2_4814" x1="24.6505" y1="18.557" x2="24.6505" y2="32.2318" gradientUnits="userSpaceOnUse">
<stop stop-color="#0062FF"/>
<stop offset="1" stop-color="white" stop-opacity="0.01"/>
</linearGradient>
</defs>
</svg>
